<?xml version="1.0" encoding="UTF-8"?>
<svg xmlns="http://www.w3.org/2000/svg" width="480" height="480" viewBox="0 0 480 480">
  <rect width="100%" height="100%" fill="#0a1018"/>
  <text x="24" y="36" fill="#a8b4c4" font-family="ui-sans-serif,system-ui,sans-serif" font-size="18" font-weight="600">Canyon Cut</text>
  <text x="24" y="58" fill="#6a7688" font-family="ui-sans-serif,system-ui,sans-serif" font-size="13">canyon-cut</text>
  <polyline fill="none" stroke="#e8eef6" stroke-width="3.2" stroke-linejoin="round" stroke-linecap="round" points="163.2,314.7 163.1,320.6 163.1,326.5 163.4,332.4 164.0,338.3 165.0,344.1 166.2,349.9 167.6,355.7 169.4,361.3 171.7,366.7 174.6,371.9 178.0,376.8 182.0,381.1 186.3,385.1 190.5,389.3 194.6,393.6 198.8,397.8 203.5,401.4 208.6,404.4 214.1,406.8 219.8,408.2 225.7,408.8 231.6,408.6 237.4,407.4 242.9,405.2 248.0,402.2 252.9,398.6 257.0,394.5 260.3,389.7 262.9,384.5 265.3,379.0 267.4,373.5 269.3,367.7 271.1,362.0 272.9,356.3 274.6,350.7 276.1,345.1 277.4,339.3 278.4,333.5 279.2,327.6 280.1,321.8 281.0,315.9 281.9,310.0 282.9,304.2 283.9,298.4 285.1,292.6 286.2,286.8 287.5,281.0 289.1,275.3 290.9,269.6 293.1,264.2 295.8,258.9 299.0,253.9 302.7,249.3 307.1,245.3 311.9,241.9 317.2,239.3 322.9,237.7 328.8,236.6 334.6,235.8 340.5,235.5 346.5,235.2 352.4,234.8 358.3,234.5 364.2,234.2 370.1,233.8 376.0,233.5 381.9,233.3 387.8,233.2 393.7,232.8 399.6,232.3 405.5,231.4 411.2,229.9 416.7,227.7 421.9,224.9 426.6,221.3 430.7,217.0 434.0,212.1 436.4,206.7 438.0,201.0 438.8,195.1 438.9,189.2 438.3,183.3 436.8,177.6 434.6,172.1 431.5,167.0 427.5,162.7 422.7,159.2 417.6,156.2 412.2,153.8 406.6,151.9 400.9,150.2 395.1,148.9 389.3,147.9 383.5,146.8 377.7,145.7 371.8,144.7 366.0,143.7 360.1,142.8 354.4,141.5 348.7,139.8 343.1,137.8 337.7,135.5 332.4,132.7 327.4,129.6 322.5,126.3 317.8,122.6 313.5,118.6 309.8,114.0 306.6,109.0 303.5,104.0 300.7,98.7 297.9,93.5 294.4,88.7 290.5,84.3 286.1,80.4 281.1,77.2 275.6,74.8 270.0,73.0 264.2,71.9 258.3,71.4 252.4,71.2 246.5,71.3 240.6,71.9 234.8,73.0 229.1,74.7 223.4,76.4 217.7,78.0 212.0,79.7 206.5,81.8 201.2,84.5 196.2,87.6 191.5,91.2 187.2,95.3 183.3,99.8 179.8,104.5 176.7,109.6 173.5,114.5 170.1,119.4 166.5,124.1 162.2,128.2 157.4,131.7 152.3,134.7 147.0,137.3 141.6,139.6 136.0,141.6 130.4,143.5 124.7,145.2 119.0,146.7 113.2,147.9 107.4,148.9 101.5,149.8 95.6,150.5 89.7,151.2 83.9,152.1 78.1,153.2 72.4,154.7 66.8,156.8 61.5,159.5 56.8,163.0 52.6,167.2 49.0,171.9 46.2,177.1 44.2,182.7 42.7,188.4 41.7,194.2 41.1,200.2 41.1,206.1 41.4,212.0 42.2,217.8 43.9,223.5 46.5,228.9 49.6,233.9 53.1,238.6 57.2,243.0 62.0,246.4 67.6,248.3 73.5,249.2 79.2,250.4 85.0,251.6 90.9,252.0 96.8,251.3 102.6,250.0 108.5,249.2 114.4,248.9 120.3,249.0 126.1,249.8 131.9,251.1 137.4,253.3 142.0,256.8 146.2,261.2 150.0,265.8 153.8,270.4 157.7,274.8 161.2,279.5 163.2,285.1 163.5,291.0 163.2,296.9 163.3,302.8 163.3,308.7 163.2,314.7"/>
  <line x1="153.2" y1="315.0" x2="173.2" y2="314.3" stroke="#ff3b2e" stroke-width="3.5" stroke-linecap="round"/>
</svg>
