<?xml version="1.0" encoding="UTF-8"?>
<svg xmlns="http://www.w3.org/2000/svg" width="480" height="480" viewBox="0 0 480 480">
  <rect width="100%" height="100%" fill="#0a1018"/>
  <text x="24" y="36" fill="#a8b4c4" font-family="ui-sans-serif,system-ui,sans-serif" font-size="18" font-weight="600">City Circuit</text>
  <text x="24" y="58" fill="#6a7688" font-family="ui-sans-serif,system-ui,sans-serif" font-size="13">oval-circuit</text>
  <polyline fill="none" stroke="#e8eef6" stroke-width="3.2" stroke-linejoin="round" stroke-linecap="round" points="240.0,162.1 244.9,162.1 249.9,162.1 254.8,162.1 259.7,162.1 264.7,162.1 269.6,162.1 274.5,162.1 279.5,162.1 284.4,162.1 289.3,162.1 294.3,162.1 299.2,162.1 304.1,162.1 309.1,162.1 314.0,162.1 318.9,162.1 323.9,162.1 328.8,162.1 333.7,162.1 338.7,162.1 343.6,162.1 348.4,162.1 353.5,162.0 358.4,162.0 363.4,162.0 368.4,162.0 373.5,162.0 378.3,162.2 383.0,162.7 387.9,163.7 392.6,165.0 397.3,166.7 401.7,168.8 406.0,171.2 410.1,173.9 414.0,177.0 417.6,180.4 420.8,184.1 423.8,188.0 426.5,192.1 428.8,196.5 430.8,201.0 432.4,205.7 433.6,210.5 434.3,215.4 434.7,220.3 434.9,225.2 434.9,230.1 434.9,235.1 434.9,240.0 434.9,244.9 434.9,249.9 434.9,254.8 434.7,259.7 434.3,264.6 433.6,269.5 432.4,274.3 430.8,279.0 428.8,283.5 426.5,287.9 423.8,292.0 420.8,295.9 417.6,299.6 414.0,303.0 410.1,306.1 406.0,308.8 401.7,311.2 397.3,313.3 392.6,315.0 387.9,316.3 383.0,317.3 378.3,317.8 373.5,318.0 368.4,318.0 363.4,318.0 358.4,318.0 353.5,318.0 348.4,317.9 343.6,317.9 338.7,317.9 333.7,317.9 328.8,317.9 323.9,317.9 318.9,317.9 314.0,317.9 309.1,317.9 304.1,317.9 299.2,317.9 294.3,317.9 289.3,317.9 284.4,317.9 279.5,317.9 274.5,317.9 269.6,317.9 264.7,317.9 259.7,317.9 254.8,317.9 249.9,317.9 244.9,317.9 240.0,317.9 235.1,317.9 230.1,317.9 225.2,317.9 220.3,317.9 215.3,317.9 210.4,317.9 205.5,317.9 200.5,317.9 195.6,317.9 190.7,317.9 185.7,317.9 180.8,317.9 175.9,317.9 170.9,317.9 166.0,317.9 161.1,317.9 156.1,317.9 151.2,317.9 146.3,317.9 141.3,317.9 136.4,317.9 131.6,317.9 126.5,318.0 121.6,318.0 116.6,318.0 111.6,318.0 106.5,318.0 101.7,317.8 97.0,317.3 92.1,316.3 87.4,315.0 82.7,313.3 78.3,311.2 74.0,308.8 69.9,306.1 66.0,303.0 62.4,299.6 59.2,295.9 56.2,292.0 53.5,287.9 51.2,283.5 49.2,279.0 47.6,274.3 46.4,269.5 45.7,264.6 45.3,259.7 45.1,254.8 45.1,249.9 45.1,244.9 45.1,240.0 45.1,235.1 45.1,230.1 45.1,225.2 45.3,220.3 45.7,215.4 46.4,210.5 47.6,205.7 49.2,201.0 51.2,196.5 53.5,192.1 56.2,188.0 59.2,184.1 62.4,180.4 66.0,177.0 69.9,173.9 74.0,171.2 78.3,168.8 82.7,166.7 87.4,165.0 92.1,163.7 97.0,162.7 101.7,162.2 106.5,162.0 111.6,162.0 116.6,162.0 121.6,162.0 126.5,162.0 131.6,162.1 136.4,162.1 141.3,162.1 146.3,162.1 151.2,162.1 156.1,162.1 161.1,162.1 166.0,162.1 170.9,162.1 175.9,162.1 180.8,162.1 185.7,162.1 190.7,162.1 195.6,162.1 200.5,162.1 205.5,162.1 210.4,162.1 215.3,162.1 220.3,162.1 225.2,162.1 230.1,162.1 235.1,162.1 240.0,162.1"/>
  <line x1="240.0" y1="172.1" x2="240.0" y2="152.1" stroke="#ff3b2e" stroke-width="3.5" stroke-linecap="round"/>
</svg>
